#!OML:ASF F:\VICON\USERDATA\INSTALL\rory3\rory3.ASF
:FULLY-SPECIFIED
:DEGREES
49
root 0.007450887158608532 17.940711309103754 7.583903533689127 -0.2685724107351293 -4.1027304695928954 -8.81362482268682
lfemur -25.036102299931795 -5.320775841837711 -7.287803087821555
ltibia 16.42280447819389
lfoot -7.52228988526681 6.966016024380374
ltoes -4.017732041209481
rfemur 6.714357124436891 6.352668187009703 35.358643751512155
rtibia 23.697996709281696
rfoot -15.577701409671107 -5.971367135281724
rtoes 3.570372678949388
lowerback nan 2.4516836672620217 8.573857424559849
upperback 0.10996967286072473 4.375511786472902 2.4534567434545105
thorax -4.8308233449199065 2.063097541811584 -2.5247091804704556
lowerneck -17.018580519898915 -2.9282983148528254 -1.476495806578309
upperneck 20.53074768543926 -3.861332109846169 0.8824939536974198
head 9.289573207655522 -1.81518785809044 0.05304359538959505
lclavicle -5.630331747179838e-16 9.005226442806527e-16
lhumerus -36.48666934959099 4.500810325956643 83.07970791774856
lradius 21.988875879300117
lwrist 2.743872097012953
lhand -27.105581161785324 22.5465511671687
lfingers nan
lthumb -0.3729444919289453 53.045450128944594
rclavicle -1.1919641876075549e-15 3.709252658896256e-16
rhumerus -23.189609721569482 -10.523007990069104 -81.6106101186547
rradius 28.639786674822446
rwrist 1.0592249189495924
rhand -18.15331654047289 nan
rfingers nan
rthumb 7.991515082707097 -5.994733958860493
50
root 0.053096146229479835 17.916604059175548 8.60907548952337 0.36470933581829046 -4.332347483118583 -9.030737286648145
lfemur -24.236408715203268 -7.86337238714267 -6.671275040614802
ltibia 7.666852711749222
lfoot -8.551848453593673 6.689738942874977
ltoes -4.946923003003099
rfemur 9.433680429977265 6.558190928334636 35.55147943698813
rtibia 22.71095438051261
rfoot -16.946257723322503 -5.154140236726807
rtoes 1.630064160744488
lowerback nan 2.539831938487854 8.539369132416512
upperback 0.06980817906105774 4.519086381374306 2.391722447643046
thorax -4.765050611095891 2.1421426463774855 -2.5689855041331415
lowerneck -17.060958896304157 -2.960392664061712 -1.4187728142229457
upperneck 20.541887257061347 -3.9343959832204143 0.9477276373064352
head 9.301040267963463 -1.8383254502643491 0.06403617623218487
lclavicle -1.117254243424906e-15 3.4318944886732547e-16
lhumerus -37.02949257992978 5.90750031319728 82.40211629163348
lradius 20.475246232934666
lwrist 1.7429080074019456
lhand -27.01172917082196 22.72834140674479
lfingers nan
lthumb -0.3711719317666513 53.000709555398295
rclavicle -1.5685371799925592e-15 1.8925198014419717e-17
rhumerus -23.270244160378155 -11.192591296411905 -81.57598324905727
rradius 28.674345353722824
rwrist 1.0154688093786142
rhand -18.223710059594655 nan
rfingers nan
rthumb 7.925857865886645 -5.961051514434841
51
root 0.10227755724102267 17.85360025733333 9.461357954279737 0.5748208453253683 -4.493578921940198 -8.722160346199095
lfemur -24.32584722667919 -5.754802721711367 -8.39768383226559
ltibia 8.525630415726845
lfoot -8.49652655616977 5.267075647486713
ltoes -5.273570949531237
rfemur 11.507854473514737 6.87833377478117 35.178887738508664
rtibia 23.73092157559143
rfoot -17.617609054509494 -3.7233916368790716
rtoes 0.0701597551325519
lowerback nan 2.561393845405317 8.135608349879332
upperback 0.050652294506896955 4.44882023393501 2.2125911412230224
thorax -4.766175874236654 2.116294187046536 -2.44544917190719
lowerneck -17.036041556777224 -2.9929949810059955 -1.4078156939356323
upperneck 20.601478229989446 -4.003372752537559 1.0097714004240865
head 9.31491680802897 -1.8643185895692702 0.08027091589442317
lclavicle -9.465424805386979e-16 5.672421708663369e-16
lhumerus -37.43953562357724 7.276922872720314 81.66008780824127
lradius 18.939741557082645
lwrist 0.542642922781674
lhand -26.597759805341404 23.735592874226978
lfingers nan
lthumb -0.08107360921907258 53.675776439181696
rclavicle -1.4659379478546568e-15 1.1376679394065097e-16
rhumerus -23.57187837506858 -12.06698390149124 -81.43986515577555
rradius 28.42165474433655
rwrist 1.217025836488797
rhand -18.228427492029557 nan
rfingers nan
rthumb 7.922599071815769 -5.974653277933026
52
root 0.16521454947795103 17.78196144634098 10.379136096633244 0.28857630921562905 -4.5103764670378546 -8.13021674762557
lfemur -25.364147629961202 -3.646748270836532 -10.635650163703177
ltibia 15.506770875646616
lfoot -7.132412296370162 3.2519702256203553
ltoes -5.137405807007962
rfemur 12.519367706656503 7.076694120404287 34.46063172105556
rtibia 27.175470382178975
rfoot -16.494105026597857 -1.8311931614236912
rtoes -0.338374628141183
lowerback nan 2.5726155694411705 7.6272794375702535
upperback 0.050628234408350015 4.342664682176359 2.007545631773994
thorax -4.800517628513806 2.074452145578456 -2.2805241430270695
lowerneck -16.91513683868306 -3.0230618039648225 -1.387441588571637
upperneck 20.696523162142284 -4.070227436894344 1.0704486335020156
head 9.330184975262435 -1.89217166146219 0.096208048254649
lclavicle -6.460410401079932e-16 9.401444939965412e-16
lhumerus -37.7456620289713 8.372502020381312 80.95827723043755
lradius 17.62838181918856
lwrist -0.8391391692533077
lhand -26.01035528033897 25.20266251370663
lfingers nan
lthumb 0.3928289425503947 54.87077005226721
rclavicle -1.1008906663050661e-15 5.376755472768503e-16
rhumerus -24.090090517324384 -13.05776385486283 -81.24748584532122
rradius 27.9971888502164
rwrist 1.6854976922223663
rhand -18.198174518754627 nan
rfingers nan
rthumb 7.9750080310867615 -6.079885975347392
